<svg aria-hidden="true" style="position: absolute; width: 0; height: 0; overflow: hidden;" version="1.1" xmlns="http://www.w3.org/2000/svg" xmlns:xlink="http://www.w3.org/1999/xlink">
<defs>
<symbol id="icon-javascript" viewBox="0 0 28 32">
<path fill="#e9ca32" style="fill: var(--color1, #e9ca32)" d="M2.301 28.69l-2.348-28.69 28.036 0.058-2.482 28.633-11.43 3.31z"></path>
<path fill="#ffde25" style="fill: var(--color2, #ffde25)" d="M14.077 29.229v-26.497l11.545 0.038-2.059 23.707z"></path>
<path fill="#fff" style="fill: var(--color3, #fff)" d="M12.841 5.879h-3.052v17.636l-2.374-0.452v-2.374l-2.826-0.452v5.313l8.253 2.148zM15.13 5.879h8.45l-0.565 3.38h-4.659v5.547h4.659l-0.565 11.196-7.319 1.696v-3.505l4.945-1.696 0.286-4.635-5.231 0.757z"></path>
</symbol>
<symbol id="icon-folder_js_icon" viewBox="0 0 32 32">
<path fill="#fff" style="fill: var(--color3, #fff)" d="M1.313 6.063v20.313c0 1.208 0.979 2.188 2.188 2.188h25c1.208 0 2.188-0.979 2.188-2.188v-18c0-1.208-0.979-2.188-2.188-2.188h-14.042c-0.612 0-1.207-0.199-1.695-0.568l-1.558-1.176c-0.488-0.369-1.083-0.568-1.695-0.568h-6.011c-1.208 0-2.188 0.979-2.188 2.187z"></path>
<path fill="#f7df1e" style="fill: var(--color4, #f7df1e)" d="M30.688 11.734h-29.375v-5.672c0-1.208 0.979-2.188 2.188-2.188h6.011c0.612 0 1.207 0.199 1.695 0.568l1.558 1.176c0.488 0.369 1.083 0.568 1.695 0.568h14.042c1.208 0 2.188 0.979 2.188 2.188v3.359z"></path>
<path fill="#f7df1e" style="fill: var(--color4, #f7df1e)" d="M3.5 8.063h25c1.208 0 2.188 0.979 2.188 2.188v16.125c0 1.208-0.979 2.188-2.188 2.188h-25c-1.208 0-2.188-0.979-2.188-2.188v-16.125c0-1.208 0.979-2.188 2.188-2.188z"></path>
<path fill="#423e21" style="fill: var(--color5, #423e21)" d="M13.906 22.747l1.533-0.928c0.296 0.524 0.565 0.968 1.21 0.968 0.619 0 1.009-0.242 1.009-1.183v-6.402h1.883v6.429c0 1.95-1.143 2.838-2.811 2.838-1.506 0-2.381-0.78-2.825-1.722l0 0zM20.565 22.545l1.533-0.888c0.404 0.659 0.928 1.143 1.856 1.143 0.78 0 1.278-0.39 1.278-0.928 0-0.646-0.511-0.874-1.372-1.251l-0.471-0.202c-1.359-0.578-2.26-1.305-2.26-2.838 0-1.412 1.076-2.488 2.757-2.488 1.197 0 2.058 0.417 2.677 1.506l-1.466 0.942c-0.323-0.578-0.672-0.807-1.21-0.807-0.552 0-0.901 0.35-0.901 0.807 0 0.565 0.35 0.794 1.157 1.143l0.471 0.202c1.601 0.686 2.502 1.385 2.502 2.959 0 1.695-1.332 2.623-3.12 2.623-1.748 0-2.878-0.834-3.43-1.923z"></path>
<path fill="#fff" style="fill: var(--color3, #fff)" opacity="0.01" d="M30.519 27.219c0.074-0.177 0.125-0.366 0.151-0.563h-29.339c0.025 0.197 0.077 0.386 0.151 0.563h29.038z"></path>
<path fill="#fff" style="fill: var(--color3, #fff)" opacity="0.01" d="M30.688 25.5h-29.375v0.563h29.375v-0.563z"></path>
<path fill="#fff" style="fill: var(--color3, #fff)" opacity="0.02" d="M1.313 10.25c0-1.208 0.979-2.188 2.188-2.188h25c1.208 0 2.188 0.979 2.188 2.188v16.125c0 1.208-0.979 2.188-2.188 2.188h-25c-1.208 0-2.188-0.979-2.188-2.188v-16.125z"></path>
</symbol>
</defs>
</svg>
